<mxfile host="app.diagrams.net" modified="2023-03-08T15:22:41.919Z" agent="5.0 (Windows NT 10.0; Win64; x64) AppleWebKit/537.36 (KHTML, like Gecko) Chrome/110.0.0.0 Safari/537.36" etag="3o8ZnlPXmCXtFEzsYFqa" version="21.0.2" type="github">
  <diagram name="Page-1" id="5JRyVkoO-X-eHo-2agsn">
    <mxGraphModel dx="983" dy="401" grid="1" gridSize="10" guides="1" tooltips="1" connect="1" arrows="1" fold="1" page="1" pageScale="1" pageWidth="827" pageHeight="1169" math="0" shadow="0">
      <root>
        <mxCell id="0" />
        <mxCell id="1" parent="0" />
        <mxCell id="j7glhV_AIPGP4M07K7ve-19" value="git commit" style="text;html=1;align=center;verticalAlign=middle;resizable=0;points=[];autosize=1;strokeColor=none;fillColor=none;" parent="1" vertex="1">
          <mxGeometry x="520" y="310" width="80" height="30" as="geometry" />
        </mxCell>
        <mxCell id="j7glhV_AIPGP4M07K7ve-20" value="git push" style="text;html=1;align=center;verticalAlign=middle;resizable=0;points=[];autosize=1;strokeColor=none;fillColor=none;" parent="1" vertex="1">
          <mxGeometry x="520" y="190" width="70" height="30" as="geometry" />
        </mxCell>
        <mxCell id="j7glhV_AIPGP4M07K7ve-21" value="git commit" style="text;html=1;align=center;verticalAlign=middle;resizable=0;points=[];autosize=1;strokeColor=none;fillColor=none;" parent="1" vertex="1">
          <mxGeometry x="80" y="320" width="80" height="30" as="geometry" />
        </mxCell>
        <mxCell id="j7glhV_AIPGP4M07K7ve-22" value="git push" style="text;html=1;align=center;verticalAlign=middle;resizable=0;points=[];autosize=1;strokeColor=none;fillColor=none;" parent="1" vertex="1">
          <mxGeometry x="85" y="200" width="70" height="30" as="geometry" />
        </mxCell>
        <mxCell id="3w7prbEQlWMRXHgUI_1F-1" value="" style="group" vertex="1" connectable="0" parent="1">
          <mxGeometry x="170" y="80" width="390" height="410" as="geometry" />
        </mxCell>
        <mxCell id="j7glhV_AIPGP4M07K7ve-2" value="Branch 1 (Kavi)" style="rounded=1;whiteSpace=wrap;html=1;" parent="3w7prbEQlWMRXHgUI_1F-1" vertex="1">
          <mxGeometry x="20" y="100" width="120" height="60" as="geometry" />
        </mxCell>
        <mxCell id="j7glhV_AIPGP4M07K7ve-3" value="Branch 2 (Sivanesh)" style="rounded=1;whiteSpace=wrap;html=1;" parent="3w7prbEQlWMRXHgUI_1F-1" vertex="1">
          <mxGeometry x="270" y="100" width="120" height="60" as="geometry" />
        </mxCell>
        <mxCell id="j7glhV_AIPGP4M07K7ve-4" value="Local reop@kavi" style="rounded=1;whiteSpace=wrap;html=1;" parent="3w7prbEQlWMRXHgUI_1F-1" vertex="1">
          <mxGeometry x="10" y="240" width="120" height="60" as="geometry" />
        </mxCell>
        <mxCell id="j7glhV_AIPGP4M07K7ve-5" value="Working directory@kavi" style="rounded=1;whiteSpace=wrap;html=1;" parent="3w7prbEQlWMRXHgUI_1F-1" vertex="1">
          <mxGeometry x="10" y="350" width="120" height="60" as="geometry" />
        </mxCell>
        <mxCell id="j7glhV_AIPGP4M07K7ve-6" value="Local Repo @ sivanesh" style="rounded=1;whiteSpace=wrap;html=1;" parent="3w7prbEQlWMRXHgUI_1F-1" vertex="1">
          <mxGeometry x="270" y="230" width="120" height="60" as="geometry" />
        </mxCell>
        <mxCell id="j7glhV_AIPGP4M07K7ve-7" value="Working Directory@sivanesh" style="rounded=1;whiteSpace=wrap;html=1;" parent="3w7prbEQlWMRXHgUI_1F-1" vertex="1">
          <mxGeometry x="270" y="340" width="120" height="60" as="geometry" />
        </mxCell>
        <mxCell id="j7glhV_AIPGP4M07K7ve-11" value="" style="shape=singleArrow;direction=north;whiteSpace=wrap;html=1;" parent="3w7prbEQlWMRXHgUI_1F-1" vertex="1">
          <mxGeometry x="50" y="160" width="60" height="70" as="geometry" />
        </mxCell>
        <mxCell id="j7glhV_AIPGP4M07K7ve-12" value="" style="shape=singleArrow;direction=north;whiteSpace=wrap;html=1;" parent="3w7prbEQlWMRXHgUI_1F-1" vertex="1">
          <mxGeometry x="300" y="160" width="60" height="70" as="geometry" />
        </mxCell>
        <mxCell id="j7glhV_AIPGP4M07K7ve-15" value="" style="html=1;shadow=0;dashed=0;align=center;verticalAlign=middle;shape=mxgraph.arrows2.arrow;dy=0.6;dx=40;direction=north;notch=0;" parent="3w7prbEQlWMRXHgUI_1F-1" vertex="1">
          <mxGeometry x="315" y="290" width="30" height="50" as="geometry" />
        </mxCell>
        <mxCell id="j7glhV_AIPGP4M07K7ve-16" value="" style="html=1;shadow=0;dashed=0;align=center;verticalAlign=middle;shape=mxgraph.arrows2.arrow;dy=0.6;dx=40;direction=north;notch=0;" parent="3w7prbEQlWMRXHgUI_1F-1" vertex="1">
          <mxGeometry x="55" y="300" width="30" height="50" as="geometry" />
        </mxCell>
        <mxCell id="j7glhV_AIPGP4M07K7ve-17" value="" style="html=1;shadow=0;dashed=0;align=center;verticalAlign=middle;shape=mxgraph.arrows2.arrow;dy=0.6;dx=40;direction=north;notch=0;rotation=55;" parent="3w7prbEQlWMRXHgUI_1F-1" vertex="1">
          <mxGeometry x="90" y="30" width="20" height="70" as="geometry" />
        </mxCell>
        <mxCell id="j7glhV_AIPGP4M07K7ve-18" value="" style="html=1;shadow=0;dashed=0;align=center;verticalAlign=middle;shape=mxgraph.arrows2.arrow;dy=0.28;dx=28.35;direction=north;notch=0;rotation=-45;" parent="3w7prbEQlWMRXHgUI_1F-1" vertex="1">
          <mxGeometry x="300" y="30" width="20" height="70" as="geometry" />
        </mxCell>
        <mxCell id="j7glhV_AIPGP4M07K7ve-23" value="" style="html=1;shadow=0;dashed=0;align=center;verticalAlign=middle;shape=mxgraph.arrows2.jumpInArrow;dy=14.81;dx=40.47;arrowHead=41.11;rotation=-181;" parent="3w7prbEQlWMRXHgUI_1F-1" vertex="1">
          <mxGeometry x="119.83999999999997" y="90.35" width="80.08" height="310.26" as="geometry" />
        </mxCell>
        <mxCell id="j7glhV_AIPGP4M07K7ve-25" value="" style="html=1;shadow=0;dashed=0;align=center;verticalAlign=middle;shape=mxgraph.arrows2.jumpInArrow;dy=8.77;dx=37.02;arrowHead=44.99;rotation=-90;movable=1;resizable=1;rotatable=1;deletable=1;editable=1;locked=0;connectable=1;direction=south;flipH=1;" parent="3w7prbEQlWMRXHgUI_1F-1" vertex="1">
          <mxGeometry x="70" y="201.26" width="336" height="60.74" as="geometry" />
        </mxCell>
        <mxCell id="j7glhV_AIPGP4M07K7ve-26" value="git merge" style="text;html=1;align=center;verticalAlign=middle;resizable=0;points=[];autosize=1;strokeColor=none;fillColor=none;" parent="3w7prbEQlWMRXHgUI_1F-1" vertex="1">
          <mxGeometry x="320" y="35" width="70" height="30" as="geometry" />
        </mxCell>
        <mxCell id="j7glhV_AIPGP4M07K7ve-27" value="git merge" style="text;html=1;align=center;verticalAlign=middle;resizable=0;points=[];autosize=1;strokeColor=none;fillColor=none;" parent="3w7prbEQlWMRXHgUI_1F-1" vertex="1">
          <mxGeometry y="35" width="70" height="30" as="geometry" />
        </mxCell>
        <mxCell id="j7glhV_AIPGP4M07K7ve-28" value="git pull" style="text;html=1;align=center;verticalAlign=middle;resizable=0;points=[];autosize=1;strokeColor=none;fillColor=none;" parent="3w7prbEQlWMRXHgUI_1F-1" vertex="1">
          <mxGeometry x="170" y="365" width="60" height="30" as="geometry" />
        </mxCell>
        <mxCell id="3w7prbEQlWMRXHgUI_1F-3" value="Branch Main" style="rounded=1;whiteSpace=wrap;html=1;" vertex="1" parent="3w7prbEQlWMRXHgUI_1F-1">
          <mxGeometry x="140" y="-20" width="120" height="60" as="geometry" />
        </mxCell>
      </root>
    </mxGraphModel>
  </diagram>
</mxfile>
